<svg xmlns="http://www.w3.org/2000/svg" viewBox="0 28 200 100" width="200" height="200">
  <!-- Elliptical top (coin face) -->
  <ellipse cx="100" cy="60" rx="90" ry="20" fill="none" stroke="#808080" stroke-width="2" />

  <!-- Front face -->
  <!-- <path d="M10 50 Q 100 20 190 50 L 190 70 Q 100 90 10 70 Z" fill="#d3d3d3" stroke="#808080" stroke-width="2" /> -->

  <!-- Edge with clearer boundaries -->
  <g>
    <!-- Base edge -->
    <path d="
      M 10,60
      L 10,50
      A 90,20 0 0,1 190,50
      L 190,60
      A 90,20 0 0,1 10,60
      Z 
      " fill="#a0a0a0" stroke="#808080" stroke-width="1.5" />

    <!-- Texture lines -->
    <!-- <line x1="10" y1="49" x2="10" y2="60" stroke="#707070" stroke-width="1" /> -->
    <line x1="20" y1="59" x2="20" y2="70" stroke="#707070" stroke-width="1" />
    <line x1="40" y1="65" x2="40" y2="76" stroke="#707070" stroke-width="1" />
    <line x1="60" y1="68" x2="60" y2="78" stroke="#707070" stroke-width="1" />
    <line x1="80" y1="70" x2="80" y2="79" stroke="#707070" stroke-width="1" />
    <line x1="100" y1="70" x2="100" y2="80" stroke="#707070" stroke-width="1" />
    <line x1="120" y1="70" x2="120" y2="79" stroke="#707070" stroke-width="1" />
    <line x1="140" y1="68" x2="140" y2="78" stroke="#707070" stroke-width="1" />
    <line x1="160" y1="65" x2="160" y2="76" stroke="#707070" stroke-width="1" />
    <line x1="180" y1="60" x2="180" y2="70" stroke="#707070" stroke-width="1" />
  </g>

  <!-- Boundary shadow for the top surface -->
    <ellipse cx="100" cy="50" rx="90" ry="20" fill="#c0c0c0" stroke="#6c6c6c" stroke-width="1.5" />
</svg>
